<svg width="24" height="24" viewBox="0 0 24 24" xmlns="http://www.w3.org/2000/svg">
<path fill-rule="evenodd" clip-rule="evenodd" d="M1.99995 2.19995C1.55812 2.19995 1.19995 2.55812 1.19995 2.99995C1.19995 3.44178 1.55812 3.79995 1.99995 3.79995H4.67754L5.37609 7.29012C5.37968 7.31327 5.38426 7.33608 5.38978 7.35853L6.78205 14.3147C6.89492 14.8823 7.20377 15.3921 7.65458 15.755C8.10335 16.1163 8.66434 16.309 9.2402 16.3H17.3264C17.9022 16.309 18.4632 16.1163 18.912 15.755C19.3629 15.392 19.6719 14.882 19.7846 14.3141L21.1191 7.31648C21.1638 7.08228 21.1017 6.84036 20.9497 6.65666C20.7977 6.47296 20.5717 6.36662 20.3333 6.36662H6.82299L6.11773 2.84295C6.04289 2.46906 5.71459 2.19995 5.33328 2.19995H1.99995ZM8.35129 14.0024L7.14323 7.96662H19.3663L18.2153 14.0024L18.2148 14.0048C18.1748 14.2034 18.0665 14.3817 17.9087 14.5087C17.7502 14.6362 17.552 14.704 17.3486 14.7001L17.3333 14.7H9.23328L9.21796 14.7001C9.01459 14.704 8.81634 14.6362 8.65789 14.5087C8.49945 14.3811 8.39091 14.2019 8.35129 14.0024ZM7.03345 19.6668C7.03345 18.7647 7.76471 18.0334 8.66678 18.0334C9.56885 18.0334 10.3001 18.7647 10.3001 19.6668C10.3001 20.5688 9.56885 21.3001 8.66678 21.3001C7.76471 21.3001 7.03345 20.5688 7.03345 19.6668ZM16.2 19.6668C16.2 18.7647 16.9312 18.0334 17.8333 18.0334C18.7353 18.0334 19.4666 18.7647 19.4666 19.6668C19.4666 20.5688 18.7353 21.3001 17.8333 21.3001C16.9312 21.3001 16.2 20.5688 16.2 19.6668Z"/>
</svg>
