<svg width="120" height="41" viewBox="0 0 120 41" fill="none" xmlns="http://www.w3.org/2000/svg">
<path fill-rule="evenodd" clip-rule="evenodd" d="M1.80422 8.00399C1.76844 7.96857 1.73267 7.93315 1.6969 7.8623L1.80422 8.00399Z" fill="#F3F8ED"/>
<path fill-rule="evenodd" clip-rule="evenodd" d="M7.92053 30.4227C6.9906 30.3872 5.0592 30.3164 4.59416 30.281C3.77154 30.2456 3.12765 30.2101 1.84014 30.1039C1.76859 30.1039 1.55396 30.0684 1.44664 29.9268C1.26778 29.7496 1.33933 29.4664 1.33933 29.3601C1.41087 28.8998 1.41087 27.8727 1.33933 26.3143C1.33933 26.208 1.3751 25.9956 1.51819 25.8184C1.73282 25.4997 2.019 25.358 2.12617 25.3225C2.3408 25.2162 2.51966 25.2162 2.73415 25.1808C2.73415 25.1808 2.91301 25.1454 3.09187 25.1808C4.12912 25.2162 5.63141 25.5704 5.63141 25.5704C6.0963 25.6767 6.81174 25.8538 7.74167 26.0663C7.84899 26.1018 8.09939 26.208 8.27811 26.456C8.59992 26.8456 8.56429 27.306 8.56429 27.4122C8.56429 28.2268 8.56429 29.0768 8.56429 29.8913C8.56429 29.9268 8.52852 30.1747 8.31389 30.3163C8.17094 30.4225 7.99208 30.4225 7.92053 30.4225V30.4227Z" fill="#7ECA1D"/>
<path fill-rule="evenodd" clip-rule="evenodd" d="M6.91896 25.2167C5.38105 24.8981 3.80722 24.5791 2.26931 24.2605C1.7685 24.2605 1.33938 23.8355 1.33938 23.3396L1.33923 16.7167C1.33923 16.2208 1.76836 15.7959 2.26916 15.7959H7.67003C8.17084 15.7959 8.59997 16.2208 8.59997 16.7167C8.59997 19.4084 8.56419 22.0647 8.56419 24.7564C8.56419 24.8626 8.56419 24.9335 8.52842 24.9689C8.38519 25.2876 7.74158 25.3938 6.91896 25.2167Z" fill="black"/>
<path fill-rule="evenodd" clip-rule="evenodd" d="M10.3168 0.283734H8.77878V6.16292C8.77878 6.16292 8.77878 6.19835 8.77878 6.23377V6.90664C8.77878 6.97749 8.743 7.01291 8.743 7.08375C8.56414 7.50867 8.13502 7.93374 7.56267 7.96916C6.74005 8.00458 6.27516 7.19002 6.20347 7.08375C6.09615 6.87122 6.02461 6.65883 5.98884 6.51714L5.98898 0.212891H4.27206V6.80038C4.23629 6.87122 4.20052 6.97749 4.16475 7.04833C4.0932 7.1546 3.62831 8.00458 2.80555 7.93374C2.23334 7.89831 1.83985 7.47339 1.66113 7.08375V0.212891H0.0158987V11.2628C0.0158987 11.4399 -0.0198734 11.6525 0.0158987 11.8649C0.0158987 11.9357 0.0158987 11.9711 0.0516708 12.042C0.409392 13.7421 2.87724 15.1587 5.20214 15.0878C7.5269 15.1587 9.99488 13.7419 10.3526 12.042C10.3526 12.0065 10.3526 11.9711 10.3526 11.9711L10.3884 11.9714V0.283876H10.317L10.3168 0.283734Z" fill="black"/>
<path fill-rule="evenodd" clip-rule="evenodd" d="M7.52696 36.0191H2.26918C1.73274 36.0191 1.2677 35.5941 1.2677 35.0274V32.442C1.2677 31.9108 1.69682 31.4503 2.26918 31.4503L7.52696 31.4502C8.0634 31.4502 8.52843 31.8751 8.52843 32.4419V35.0272C8.52843 35.594 8.06354 36.0189 7.52696 36.0189V36.0191Z" fill="#65A217"/>
<path fill-rule="evenodd" clip-rule="evenodd" d="M7.67 40.8713C5.95309 40.8713 4.27223 40.8713 2.55531 40.8713C2.44799 40.8713 2.16182 40.8713 1.84001 40.6588C1.48229 40.3754 1.44652 40.0212 1.41089 39.9505C1.41089 39.2422 1.41089 38.5337 1.41089 37.8254C1.41089 37.4712 1.69707 37.1526 2.09042 37.1526C3.95028 37.0817 5.81014 36.9755 7.70578 36.9046C7.74155 36.9046 7.99195 36.8338 8.24221 37.0109C8.42107 37.1172 8.45685 37.2943 8.49262 37.3651C8.49262 38.7818 8.49262 39.8442 8.45685 40.3047C8.45685 40.3755 8.45685 40.5527 8.31376 40.7296C8.06335 40.942 7.66986 40.8713 7.66986 40.8713H7.67Z" fill="#7ECA1D"/>
<path fill-rule="evenodd" clip-rule="evenodd" d="M18.3642 25.6064C16.8263 25.4647 15.2882 25.2877 13.7146 25.146C13.6072 25.1106 13.4284 25.0398 13.2854 24.8626C12.8919 24.4377 13.0708 23.8356 13.1066 23.8001C13.0708 16.5398 13.035 9.31469 13.035 2.05433C13.035 0.92111 13.965 0.000141123 15.1095 0.000141123L17.6131 0C18.7576 0 19.6876 0.920828 19.6876 2.05419C19.6876 9.63334 19.6876 17.2479 19.6876 24.8269C19.6876 24.8624 19.6519 25.2873 19.2585 25.5352C18.8294 25.7833 18.4001 25.6416 18.3644 25.6062L18.3642 25.6064Z" fill="black"/>
<path fill-rule="evenodd" clip-rule="evenodd" d="M18.5787 31.1667H15.0379C14.4656 31.1667 14.0006 30.7064 14.0006 30.1396C14.0364 29.1834 14.0722 28.2626 14.1079 27.3063C14.1079 27.2709 14.0006 26.8814 14.2868 26.598C14.5372 26.3146 14.9307 26.35 14.9663 26.35C16.1824 26.4209 17.3985 26.4917 18.5789 26.598C19.1511 26.598 19.6161 27.0583 19.6161 27.6251V30.1398C19.6519 30.7064 19.187 31.1667 18.5789 31.1667H18.5787Z" fill="#65A217"/>
<path fill-rule="evenodd" clip-rule="evenodd" d="M19.4015 35.4526C19.2584 35.5943 19.0797 35.6297 19.008 35.6297C18.4715 35.736 16.8977 35.9839 14.7518 36.3026C14.6445 36.3026 14.3583 36.3026 14.1796 36.09C14.0007 35.9129 13.965 35.7004 13.965 35.5588C14.0007 34.638 14.0365 33.9297 14.0365 33.4338C14.0365 32.8672 14.0365 32.5838 14.2154 32.3006C14.5731 31.8047 15.3242 31.8047 15.6461 31.8047C16.7549 31.8401 17.8995 31.8401 19.0083 31.8755C19.0798 31.8755 19.1871 31.911 19.3301 32.0172C19.4732 32.1235 19.5089 32.2652 19.5447 32.3359C19.5805 33.0088 19.6162 33.6818 19.652 34.3546C19.6876 34.709 19.6876 35.2048 19.4015 35.4527V35.4526Z" fill="#7ECA1D"/>
<path fill-rule="evenodd" clip-rule="evenodd" d="M18.686 40.6232C18.6145 40.694 18.5072 40.7648 18.3642 40.8357C17.9351 41.0836 17.6489 40.9774 16.6832 40.9774C15.7891 40.9774 15.5029 41.0482 15.1094 40.8357C14.9663 40.7648 14.859 40.6586 14.7876 40.5877C14.5372 40.3752 14.2154 40.0565 14.1081 39.5606C14.0365 39.3127 14.0723 39.242 14.0723 38.569C14.0365 37.6127 13.965 37.4357 14.0723 37.2585C14.3227 36.8689 14.9307 36.8336 15.2884 36.7981C16.4687 36.7273 17.7563 36.621 19.2228 36.4795C19.2943 36.4795 19.4016 36.4795 19.4732 36.5503C19.4732 36.5503 19.5447 36.6212 19.5805 36.7274C19.652 36.9046 19.6163 37.8962 19.5447 39.2066C19.5447 39.242 19.5447 39.242 19.5447 39.2774C19.5089 39.4545 19.4374 39.7023 19.2943 39.9503C19.1153 40.3042 18.865 40.5167 18.686 40.623V40.6232Z" fill="#65A217"/>
<path fill-rule="evenodd" clip-rule="evenodd" d="M49.0829 27.3118C49.0829 28.2962 48.9239 29.2018 48.6853 30.0286C48.407 30.8554 48.0095 31.5642 47.5322 32.194C47.0552 32.824 46.4587 33.3358 45.7826 33.8084C45.1068 34.2415 44.3513 34.6353 43.5163 34.9108C42.6812 35.1865 41.8065 35.4226 40.892 35.5407C39.9776 35.6982 38.9436 35.7376 37.7905 35.7376L30.2359 35.738C29.7587 35.738 29.361 35.5805 29.0033 35.3048C28.6853 35.0292 28.5262 34.5568 28.5262 33.9267V9.39711C28.5262 8.76714 28.6853 8.2948 29.0033 8.01904C29.3214 7.74343 29.7587 7.58594 30.2359 7.58594H37.393C39.1426 7.58594 40.6138 7.74343 41.8067 8.01904C42.9995 8.2948 44.0334 8.76714 44.8684 9.31836C45.7034 9.90896 46.3396 10.6571 46.777 11.5626C47.2145 12.4681 47.453 13.5313 47.453 14.7517C47.453 15.4211 47.3733 16.0904 47.1745 16.681C47.0156 17.2716 46.7371 17.8229 46.419 18.3347C46.101 18.8464 45.6636 19.2795 45.1863 19.634C44.7093 20.0278 44.1525 20.3034 43.5165 20.5396C44.3117 20.6971 45.0672 20.9334 45.7432 21.2877C46.419 21.6421 47.0156 22.1146 47.5325 22.705C48.0494 23.2956 48.447 23.965 48.7254 24.7131C48.9641 25.5007 49.0834 26.3667 49.0834 27.3117L49.0829 27.3118ZM40.9316 15.815C40.9316 15.6181 40.9714 15.0669 40.8521 14.555C40.8521 14.4763 40.7326 14.0433 40.4942 13.6888L40.4545 13.6494C40.3749 13.5707 40.2159 13.3346 39.9375 13.1771C39.8978 13.1377 39.858 13.1377 39.8182 13.0983C39.7785 13.059 39.5398 12.9801 39.2218 12.862C39.023 12.8226 38.7447 12.7438 38.4266 12.7438C37.3132 12.7438 36.2398 12.7438 35.1263 12.7832C35.1263 14.6731 35.1263 16.5629 35.1263 18.453C36.995 18.4924 38.4266 18.4924 39.023 18.453C39.1821 18.453 39.4206 18.4136 39.6988 18.2561C39.8183 18.2167 40.0567 18.0592 40.2953 17.7049C40.8519 17.0751 40.8916 16.2877 40.9315 15.8151L40.9316 15.815ZM42.2835 27.8238C42.4426 27.1151 42.3632 26.5639 42.3233 26.4064C42.2835 26.1308 42.2039 25.7764 41.9654 25.3435C41.7666 25.0285 41.528 24.8316 41.369 24.6742C41.0509 24.3985 40.7328 24.241 40.3749 24.0837C40.0964 23.9654 39.858 23.8473 39.699 23.8079C38.188 23.8079 36.6771 23.8079 35.166 23.8079C35.166 25.8554 35.166 27.8633 35.166 29.9108C36.7565 29.9108 38.3073 29.9108 39.8976 29.9108C40.2157 29.8714 40.4941 29.7925 40.6531 29.7139C40.7726 29.6745 41.011 29.5564 41.2893 29.3595C41.4484 29.2413 41.6074 29.0838 41.8062 28.8477C42.1245 28.493 42.2039 28.0993 42.2834 27.8237L42.2835 27.8238Z" fill="#7ECA1D"/>
<path fill-rule="evenodd" clip-rule="evenodd" d="M71.3103 24.8703C71.35 24.9885 71.4693 25.7366 70.9921 26.4453C70.5548 27.0753 69.8789 27.2722 69.7199 27.2722C65.9822 27.2722 62.2844 27.2722 58.5467 27.3116C58.5467 27.6659 58.5865 28.2565 58.8251 28.8865C58.9445 29.2015 59.1829 29.8314 59.7794 30.3827C60.6144 31.1308 61.688 31.2095 62.364 31.2883C62.4834 31.2883 62.9604 31.2883 63.8749 31.2489C64.9883 31.2095 65.5847 31.17 65.9824 31.0914C66.4197 31.0125 67.0162 30.8945 67.692 30.5795C68.0898 30.3827 68.4077 30.1858 69.0042 30.0678C69.6006 29.9496 69.7994 30.0678 69.9187 30.1466C70.1175 30.2648 70.197 30.5009 70.2766 30.6978C70.3959 30.9734 70.3959 31.1701 70.3959 31.2884C70.3959 31.4459 70.3959 31.5246 70.3959 31.7607C70.3959 32.1546 70.4356 32.1546 70.4356 32.6663C70.4356 32.9813 70.4356 33.2569 70.3959 33.4932C70.3959 33.7296 70.3561 33.887 70.3163 34.0838C70.2766 34.2413 70.2367 34.3595 70.1969 34.4776C70.1571 34.5958 70.0776 34.6745 69.9583 34.7925C69.8788 34.9107 69.6005 35.0287 69.2028 35.1862C68.7654 35.3437 68.2485 35.5406 67.6123 35.6981C66.9761 35.8556 66.2206 36.0129 65.3855 36.1312C64.5505 36.2494 63.6359 36.328 62.6818 36.328C60.972 36.328 59.461 36.1312 58.1487 35.6981C56.8365 35.265 55.7629 34.5956 54.8882 33.7294C54.0132 32.8631 53.3772 31.7607 52.9398 30.422C52.5023 29.0834 52.3036 27.5083 52.3036 25.7366C52.3036 24.0437 52.5423 22.4688 52.9796 21.1301C53.4169 19.7519 54.0929 18.6102 54.9279 17.626C55.8027 16.681 56.8365 15.9329 58.0692 15.4209C59.3018 14.9091 60.6934 14.6729 62.2043 14.6729C63.8346 14.6729 65.2263 14.9091 66.3795 15.3816C67.5325 15.8539 68.4868 16.5234 69.2027 17.3502C69.9582 18.1771 70.475 19.2008 70.833 20.3426C71.1908 21.4843 71.3499 22.7444 71.3499 24.0831L71.3502 24.8698H71.3104L71.3103 24.8703ZM65.0675 22.7836C65.1073 22.5472 65.3061 21.3267 64.4711 20.3425C63.9941 19.7519 63.3577 19.555 63.0794 19.4369C62.9203 19.3975 62.1649 19.122 61.2106 19.3188C60.9322 19.3581 60.5347 19.4369 60.1371 19.7125C59.5009 20.1062 59.1828 20.6968 59.0635 20.9331C58.6659 21.7205 58.7456 22.4293 58.7852 22.7836C60.8527 22.7836 62.9601 22.7836 65.0675 22.7836Z" fill="#7ECA1D"/>
<path d="M92.5636 10.7544C92.5636 11.1821 92.5485 11.5373 92.5105 11.8271C92.4724 12.1171 92.4114 12.349 92.3278 12.523C92.244 12.6897 92.1528 12.8201 92.0537 12.8998C91.9471 12.9867 91.8254 13.0303 91.6959 13.0303H82.2409V20.4236H91.1097C91.2466 20.4236 91.3685 20.4599 91.4675 20.5323C91.5741 20.5975 91.6655 20.7207 91.7492 20.8874C91.833 21.0614 91.8861 21.286 91.9242 21.5687C91.9622 21.8514 91.985 22.2066 91.985 22.6342C91.985 23.0546 91.9622 23.4098 91.9242 23.6925C91.8861 23.975 91.8328 24.207 91.7492 24.3955C91.6654 24.5768 91.5741 24.7073 91.4675 24.787C91.3685 24.8668 91.2466 24.903 91.1097 24.903H82.2409V35.1448C82.2409 35.297 82.1952 35.4348 82.1038 35.5506C82.02 35.6593 81.8602 35.7536 81.6241 35.8333C81.3958 35.913 81.0912 35.971 80.7259 36.0145C80.3528 36.058 79.8733 36.0797 79.2946 36.0797C78.7314 36.0797 78.2594 36.058 77.8787 36.0145C77.498 35.971 77.1936 35.913 76.973 35.8333C76.7521 35.7608 76.5923 35.6593 76.4933 35.5506C76.3942 35.4346 76.3486 35.2969 76.3486 35.1448V10.2252C76.3486 9.6019 76.5161 9.15256 76.8512 8.87709C77.1862 8.60162 77.5971 8.46388 78.0919 8.46388H91.6959C91.8254 8.46388 91.9471 8.50015 92.0537 8.57988C92.1528 8.65962 92.2441 8.78282 92.3278 8.96402C92.4116 9.13803 92.4724 9.37709 92.5105 9.67429C92.5485 9.9715 92.5636 10.3339 92.5636 10.7543V10.7544ZM102.612 35.2318C102.612 35.3696 102.567 35.4928 102.475 35.6016C102.392 35.7102 102.239 35.7973 102.019 35.8698C101.805 35.935 101.516 35.993 101.166 36.0293C100.808 36.0656 100.352 36.0801 99.8034 36.0801C99.2553 36.0801 98.7984 36.0656 98.4405 36.0293C98.0905 35.993 97.8012 35.935 97.588 35.8698C97.3671 35.7973 97.2149 35.7104 97.1311 35.6016C97.0397 35.4929 96.9941 35.3696 96.9941 35.2318V16.3139C96.9941 16.1761 97.0397 16.0529 97.1311 15.9441C97.2149 15.8354 97.3671 15.7413 97.588 15.6688C97.8012 15.589 98.0905 15.531 98.4405 15.4876C98.7984 15.4441 99.2552 15.4224 99.8034 15.4224C100.351 15.4224 100.808 15.4441 101.166 15.4876C101.516 15.531 101.805 15.589 102.019 15.6688C102.239 15.7413 102.392 15.8354 102.475 15.9441C102.567 16.0528 102.612 16.1761 102.612 16.3139V35.2318ZM103.069 9.83376C103.069 10.9138 102.841 11.6531 102.377 12.0663C101.912 12.4795 101.06 12.6823 99.8036 12.6823C98.5397 12.6823 97.6795 12.4867 97.2457 12.0881C96.8041 11.6894 96.5834 10.9719 96.5834 9.94257C96.5834 8.86255 96.8117 8.11601 97.2685 7.69561C97.7177 7.2824 98.5778 7.07227 99.8492 7.07227C101.098 7.07227 101.95 7.2752 102.399 7.68121C102.848 8.07974 103.069 8.79735 103.069 9.8339L103.069 9.83376ZM120 33.369C120 33.9923 119.962 34.4708 119.878 34.8041C119.794 35.1376 119.688 35.3694 119.551 35.4998C119.421 35.6376 119.224 35.7608 118.965 35.8622C118.698 35.9709 118.394 36.0652 118.044 36.1377C117.701 36.2174 117.32 36.2754 116.909 36.3189C116.498 36.3624 116.087 36.3841 115.668 36.3841C114.557 36.3841 113.59 36.2464 112.768 35.9782C111.953 35.71 111.276 35.2969 110.735 34.7387C110.202 34.1806 109.806 33.4775 109.555 32.6222C109.304 31.7742 109.175 30.7666 109.175 29.6069V19.9015H106.761C106.48 19.9015 106.259 19.7348 106.114 19.4013C105.962 19.0679 105.886 18.5099 105.886 17.7269C105.886 17.3139 105.901 16.9658 105.939 16.6832C105.977 16.4005 106.038 16.1757 106.114 16.009C106.183 15.8496 106.282 15.7337 106.396 15.6612C106.502 15.5886 106.639 15.5525 106.784 15.5525H109.175V11.3122C109.175 11.1744 109.212 11.0439 109.296 10.9282C109.38 10.8195 109.532 10.7252 109.745 10.6455C109.959 10.5658 110.256 10.5078 110.621 10.4715C110.986 10.4352 111.435 10.4207 111.976 10.4207C112.524 10.4207 112.981 10.4352 113.346 10.4715C113.712 10.5078 114.001 10.5658 114.214 10.6455C114.42 10.7252 114.572 10.8195 114.656 10.9282C114.747 11.044 114.793 11.1746 114.793 11.3122V15.5525H119.109C119.261 15.5525 119.391 15.5888 119.497 15.6612C119.612 15.7337 119.703 15.8496 119.779 16.009C119.855 16.1757 119.908 16.4005 119.946 16.6832C119.984 16.9658 120 17.3139 120 17.7269C120 18.5097 119.923 19.0679 119.779 19.4013C119.627 19.7348 119.414 19.9015 119.132 19.9015H114.792V28.8024C114.792 29.8389 114.96 30.6144 115.302 31.1291C115.645 31.6438 116.254 31.9047 117.13 31.9047C117.426 31.9047 117.693 31.883 117.929 31.8322C118.165 31.7814 118.378 31.7235 118.561 31.6582C118.751 31.6002 118.903 31.5422 119.033 31.4915C119.154 31.4407 119.276 31.419 119.375 31.419C119.467 31.419 119.55 31.4407 119.634 31.4915C119.71 31.5423 119.779 31.6364 119.824 31.7887C119.862 31.9335 119.908 32.1366 119.946 32.3902C119.984 32.6511 119.999 32.97 119.999 33.3687L120 33.369Z" fill="black"/>
</svg>
